<svg width="245.000000" height="130.000000" viewBox="0 0 245 130" fill="none" xmlns="http://www.w3.org/2000/svg" xmlns:xlink="http://www.w3.org/1999/xlink">
	<desc>
			Created with Pixso.
	</desc>
	<defs/>
	<path id="Vector" d="M41.06 79.58C39.11 79.58 37.59 80.96 37.59 82.98C37.59 85 39.12 86.38 41.06 86.38C43 86.38 44.53 84.99 44.53 82.98C44.53 80.96 43.01 79.58 41.06 79.58ZM41.06 85.4C39.67 85.4 38.64 84.37 38.64 82.98C38.64 81.59 39.66 80.55 41.06 80.55C42.44 80.55 43.48 81.6 43.48 82.98C43.48 84.35 42.43 85.4 41.06 85.4ZM74.86 67.67L57.95 67.67L59.87 37.82L48.89 67.67L33.19 67.67L58.1 0.2L74.81 0.2L72.88 30.46L84.07 0.2L99.78 0.2L74.86 67.67ZM76.9 67.67L101.81 0.2L117.52 0.2L92.6 67.67L76.9 67.67Z" fill="#FFFFFF" fill-opacity="1.000000" fill-rule="evenodd"/>
	<path id="Vector" d="M31.38 44.41C9.44 70.58 -11.26 105.41 7.02 121.44C24.74 136.98 46.88 127.78 61.98 121.65C77.08 115.51 243.96 41.91 243.96 41.91C245.57 41.09 245.27 40.07 243.26 40.58C242.45 40.79 61.58 90.57 61.58 90.57C38.63 97.11 12.46 82.85 31.38 44.41Z" fill="#FFFFFF" fill-opacity="1.000000" fill-rule="evenodd"/>
	<path id="Vector" d="M41.65 83.22C42.14 83.2 42.52 82.94 42.52 82.26C42.52 81.37 41.95 81.15 41 81.15L39.64 81.15L39.64 84.81L40.55 84.81L40.55 83.25L40.7 83.25L41.53 84.81L42.58 84.81L41.65 83.22ZM41.07 82.63L40.55 82.63L40.55 81.78L40.99 81.78C41.26 81.78 41.56 81.81 41.56 82.16C41.56 82.54 41.39 82.63 41.07 82.63ZM198.91 0C196.96 0 195.43 1.38 195.43 3.4C195.43 5.42 196.97 6.8 198.91 6.8C200.84 6.8 202.38 5.41 202.38 3.4C202.38 1.38 200.85 0 198.91 0ZM198.91 5.82C197.52 5.82 196.49 4.79 196.49 3.4C196.49 2.01 197.51 0.97 198.91 0.97C200.29 0.97 201.32 2.02 201.32 3.4C201.32 4.77 200.28 5.82 198.91 5.82Z" fill="#FFFFFF" fill-opacity="1.000000" fill-rule="evenodd"/>
	<path id="Vector" d="M199.5 3.64C199.99 3.61 200.37 3.36 200.37 2.67C200.37 1.79 199.8 1.57 198.85 1.57L197.49 1.57L197.49 5.23L198.39 5.23L198.39 3.67L198.55 3.67L199.38 5.23L200.42 5.23L199.5 3.64ZM198.91 3.05L198.39 3.05L198.39 2.2L198.83 2.2C199.1 2.2 199.41 2.23 199.41 2.58C199.41 2.96 199.23 3.05 198.91 3.05ZM188.56 11.45L192.78 0.2L144.87 0.2L128.42 20.44L136.01 0.2L120.11 0.2L95.39 67.67L111.1 67.67L121.65 39.46L122.37 67.67L170.55 67.56L175.14 54.59L156.82 54.59L162.84 38.23L177.93 38.23L182.58 25.66L167.48 25.66L172.66 11.45L188.56 11.45ZM137.95 63.17L136.94 28.01L160.68 1.53L137.95 63.17Z" fill="#FFFFFF" fill-opacity="1.000000" fill-rule="evenodd"/>
</svg>
