<svg width="32.000000" height="32.000000" viewBox="0 0 32 32" fill="none" xmlns="http://www.w3.org/2000/svg" xmlns:xlink="http://www.w3.org/1999/xlink">
	<desc>
			Created with Pixso.
	</desc>
	<defs/>
	<path d="M18.14 13.79C18.65 13.27 19.16 12.05 17.03 13.53C15.04 14.92 13.04 16.29 11.02 17.65C10.71 17.79 10.38 17.87 10.04 17.87C9.71 17.88 9.37 17.82 9.06 17.69C7.78 17.3 6.29 16.78 6.29 16.78C6.29 16.78 5.27 16.13 7.02 15.44C7.02 15.44 14.39 12.36 16.94 11.27C17.92 10.84 21.25 9.45 21.25 9.45C21.25 9.45 22.78 8.84 22.65 10.32C22.61 10.93 22.27 13.05 21.93 15.35C21.42 18.6 20.86 22.16 20.86 22.16C20.86 22.16 20.78 23.15 20.05 23.33C19.28 23.32 18.53 23.04 17.93 22.55C17.75 22.42 14.73 20.47 13.62 19.51C13.51 19.44 13.42 19.33 13.35 19.21C13.29 19.08 13.26 18.95 13.27 18.81C13.27 18.67 13.31 18.53 13.38 18.41C13.45 18.29 13.55 18.2 13.66 18.12C15.18 16.71 16.68 15.26 18.14 13.79Z" fill="#464646" fill-opacity="1.000000" fill-rule="nonzero"/>
	<circle cx="16.000000" cy="16.000000" r="15.500000" stroke="#464646" stroke-opacity="1.000000" stroke-width="1.000000"/>
</svg>
