<svg width="32.000000" height="32.000000" viewBox="0 0 32 32" fill="none" xmlns="http://www.w3.org/2000/svg" xmlns:xlink="http://www.w3.org/1999/xlink">
	<desc>
			Created with Pixso.
	</desc>
	<defs/>
	<path d="M16.57 7.33C12.1 7.33 8.47 11.08 8.47 15.72C8.47 17.58 9.06 19.31 10.06 20.7L8 25.33L8.53 25.07L12.69 23.08C13.84 23.73 15.16 24.11 16.57 24.11C21.04 24.11 24.66 20.35 24.66 15.72C24.67 11.08 21.04 7.33 16.57 7.33ZM20.89 19.3C20.84 19.53 20.74 19.75 20.6 19.95C20.43 20.19 20.2 20.37 19.95 20.48C19.69 20.59 19.41 20.64 19.12 20.6C18.37 20.51 17.64 20.25 16.98 19.85C16.23 19.38 15.21 18.66 14.44 17.63C13.62 16.63 13.18 15.47 12.9 14.6C12.65 13.86 12.57 13.06 12.63 12.28C12.66 11.98 12.76 11.7 12.92 11.47C13.08 11.23 13.3 11.04 13.56 10.92C13.77 10.81 14.01 10.76 14.23 10.76C14.56 10.76 14.96 10.76 15.23 10.96C15.66 11.27 15.84 11.89 15.84 12.43C15.84 12.48 15.84 12.53 15.83 12.58C15.81 12.87 15.78 13.13 15.62 13.37C15.46 13.61 15.17 13.81 14.91 13.94C15.11 15.05 15.45 15.87 15.92 16.41C16.13 16.7 16.4 16.98 16.75 17.24C17.1 17.49 17.53 17.73 18.03 17.95C18.2 17.71 18.46 17.46 18.72 17.34C18.97 17.23 19.23 17.26 19.51 17.3C19.55 17.3 19.61 17.31 19.65 17.32C20.16 17.43 20.7 17.75 20.91 18.24C21.04 18.57 20.96 18.97 20.89 19.3Z" fill="#464646" fill-opacity="1.000000" fill-rule="nonzero"/>
	<circle cx="16.000000" cy="16.000000" r="15.500000" stroke="#464646" stroke-opacity="1.000000" stroke-width="1.000000"/>
</svg>
